<svg width="17px" height="17px" viewBox="0 0 17 17" version="1.1" xmlns="http://www.w3.org/2000/svg" xmlns:xlink="http://www.w3.org/1999/xlink"><g id="-" stroke="none" stroke-width="1" fill="none" fill-rule="evenodd"><g id="Icon-/-Edit" transform="translate(-4.000000, -3.000000)"><rect id="Rectangle" x="-4" y="-4" width="32" height="32" rx="16"></rect><path d="M14.052,6.638 L17.361,9.947 L7.48767638,19.8210097 C7.37307081,19.9356153 7.2176323,20 7.05555556,20 L4.61111111,20 C4.27360377,20 4,19.7263963 4,19.3888889 L4,16.9444444 C4,16.7823678 4.06438474,16.6269292 4.1789903,16.5123236 L14.052,6.638 Z M18.3765653,3.1789903 L20.8210097,5.62343475 C21.0596634,5.86208849 21.0596634,6.24902263 20.8210097,6.48767637 L18.225,9.083 L14.916,5.774 L17.5123236,3.1789903 C17.7509774,2.94033657 18.1379115,2.94033657 18.3765653,3.1789903 Z" id="Combined-Shape" fill-opacity="0.5" fill="#333842"></path></g></g></svg>